dataset
version=1
nRows=16
nColumns=39
inDegrees=no
endheader
time	sternoclavicular_r2	sternoclavicular_r3	unrotscap_r3	unrotscap_r2	acromioclavicular_r2	acromioclavicular_r3	acromioclavicular_r1	unrothum_r1	unrothum_r3	unrothum_r2	elv_angle	shoulder_elv	shoulder1_r2	shoulder_rot	elbow_flexion	pro_sup	deviation	flexion	cmc_abduction	cmc_flexion	mp_flexion	ip_flexion	mcp2_flexion	mcp2_abduction	pm2_flexion	md2_flexion	mcp3_flexion	mcp3_abduction	pm3_flexion	md3_flexion	mcp4_flexion	mcp4_abduction	pm4_flexion	md4_flexion	mcp5_flexion	mcp5_abduction	pm5_flexion	md5_flexion
5.315000	-0.029005	-0.497775	0.317103	0.131906	0.079883	0.253927	-0.222073	0.099683	-0.077285	0.080735	0.064822	0.027437	0.146525	0.146525	2.482076	1.320248	0.000000	0.000000	0.000000	0.000000	0.000000	0.000000	0.000000	0.000000	0.000000	0.000000	0.000000	0.000000	0.000000	0.000000	0.000000	0.000000	0.000000	0.000000	0.000000	0.000000	0.000000	0.000000
5.320000	-0.028887	-0.497686	0.317040	0.131920	0.079820	0.254309	-0.221779	0.099788	-0.076835	0.080588	0.064843	0.027437	0.146525	0.146525	2.482018	1.319667	0.000000	0.000000	0.000000	0.000000	0.000000	0.000000	0.000000	0.000000	0.000000	0.000000	0.000000	0.000000	0.000000	0.000000	0.000000	0.000000	0.000000	0.000000	0.000000	0.000000	0.000000	0.000000
5.325000	-0.028771	-0.497599	0.316982	0.131934	0.079757	0.254688	-0.221493	0.099894	-0.076394	0.080442	0.064862	0.027437	0.146525	0.146525	2.481962	1.319097	0.000000	0.000000	0.000000	0.000000	0.000000	0.000000	0.000000	0.000000	0.000000	0.000000	0.000000	0.000000	0.000000	0.000000	0.000000	0.000000	0.000000	0.000000	0.000000	0.000000	0.000000	0.000000
5.330000	-0.028656	-0.497514	0.316928	0.131948	0.079694	0.255065	-0.221213	0.099999	-0.075959	0.080297	0.064880	0.027437	0.146525	0.146525	2.481907	1.318538	0.000000	0.000000	0.000000	0.000000	0.000000	0.000000	0.000000	0.000000	0.000000	0.000000	0.000000	0.000000	0.000000	0.000000	0.000000	0.000000	0.000000	0.000000	0.000000	0.000000	0.000000	0.000000
5.335000	-0.028543	-0.497430	0.316879	0.131961	0.079632	0.255439	-0.220939	0.100105	-0.075532	0.080153	0.064896	0.027437	0.146525	0.146525	2.481854	1.317989	0.000000	0.000000	0.000000	0.000000	0.000000	0.000000	0.000000	0.000000	0.000000	0.000000	0.000000	0.000000	0.000000	0.000000	0.000000	0.000000	0.000000	0.000000	0.000000	0.000000	0.000000	0.000000
5.340000	-0.028432	-0.497347	0.316832	0.131973	0.079569	0.255810	-0.220671	0.100210	-0.075112	0.080009	0.064910	0.027437	0.146525	0.146525	2.481803	1.317449	0.000000	0.000000	0.000000	0.000000	0.000000	0.000000	0.000000	0.000000	0.000000	0.000000	0.000000	0.000000	0.000000	0.000000	0.000000	0.000000	0.000000	0.000000	0.000000	0.000000	0.000000	0.000000
5.345000	-0.028321	-0.497266	0.316789	0.131985	0.079506	0.256178	-0.220408	0.100316	-0.074698	0.079865	0.064923	0.027437	0.146525	0.146525	2.481756	1.316920	0.000000	0.000000	0.000000	0.000000	0.000000	0.000000	0.000000	0.000000	0.000000	0.000000	0.000000	0.000000	0.000000	0.000000	0.000000	0.000000	0.000000	0.000000	0.000000	0.000000	0.000000	0.000000
5.350000	-0.028212	-0.497186	0.316748	0.131995	0.079442	0.256543	-0.220150	0.100420	-0.074290	0.079721	0.064934	0.027437	0.146525	0.146525	2.481712	1.316399	0.000000	0.000000	0.000000	0.000000	0.000000	0.000000	0.000000	0.000000	0.000000	0.000000	0.000000	0.000000	0.000000	0.000000	0.000000	0.000000	0.000000	0.000000	0.000000	0.000000	0.000000	0.000000
5.355000	-0.028104	-0.497106	0.316709	0.132005	0.079378	0.256905	-0.219896	0.100525	-0.073888	0.079578	0.064943	0.027437	0.146525	0.146525	2.481671	1.315889	0.000000	0.000000	0.000000	0.000000	0.000000	0.000000	0.000000	0.000000	0.000000	0.000000	0.000000	0.000000	0.000000	0.000000	0.000000	0.000000	0.000000	0.000000	0.000000	0.000000	0.000000	0.000000
5.360000	-0.027997	-0.497027	0.316671	0.132013	0.079314	0.257264	-0.219646	0.100628	-0.073492	0.079435	0.064951	0.027437	0.146525	0.146525	2.481635	1.315387	0.000000	0.000000	0.000000	0.000000	0.000000	0.000000	0.000000	0.000000	0.000000	0.000000	0.000000	0.000000	0.000000	0.000000	0.000000	0.000000	0.000000	0.000000	0.000000	0.000000	0.000000	0.000000
5.365000	-0.027891	-0.496949	0.316635	0.132020	0.079249	0.257619	-0.219398	0.100731	-0.073101	0.079291	0.064956	0.027437	0.146525	0.146525	2.481604	1.314894	0.000000	0.000000	0.000000	0.000000	0.000000	0.000000	0.000000	0.000000	0.000000	0.000000	0.000000	0.000000	0.000000	0.000000	0.000000	0.000000	0.000000	0.000000	0.000000	0.000000	0.000000	0.000000
5.370000	-0.027786	-0.496871	0.316598	0.132026	0.079183	0.257971	-0.219154	0.100833	-0.072715	0.079148	0.064960	0.027437	0.146525	0.146525	2.481578	1.314410	0.000000	0.000000	0.000000	0.000000	0.000000	0.000000	0.000000	0.000000	0.000000	0.000000	0.000000	0.000000	0.000000	0.000000	0.000000	0.000000	0.000000	0.000000	0.000000	0.000000	0.000000	0.000000
5.375000	-0.027681	-0.496793	0.316562	0.132030	0.079116	0.258319	-0.218912	0.100933	-0.072333	0.079004	0.064962	0.027437	0.146525	0.146525	2.481557	1.313935	0.000000	0.000000	0.000000	0.000000	0.000000	0.000000	0.000000	0.000000	0.000000	0.000000	0.000000	0.000000	0.000000	0.000000	0.000000	0.000000	0.000000	0.000000	0.000000	0.000000	0.000000	0.000000
5.380000	-0.027578	-0.496716	0.316526	0.132033	0.079049	0.258663	-0.218672	0.101033	-0.071956	0.078861	0.064963	0.027437	0.146525	0.146525	2.481541	1.313468	0.000000	0.000000	0.000000	0.000000	0.000000	0.000000	0.000000	0.000000	0.000000	0.000000	0.000000	0.000000	0.000000	0.000000	0.000000	0.000000	0.000000	0.000000	0.000000	0.000000	0.000000	0.000000
5.385000	-0.027475	-0.496638	0.316489	0.132034	0.078980	0.259004	-0.218434	0.101131	-0.071583	0.078716	0.064961	0.027437	0.146525	0.146525	2.481532	1.313009	0.000000	0.000000	0.000000	0.000000	0.000000	0.000000	0.000000	0.000000	0.000000	0.000000	0.000000	0.000000	0.000000	0.000000	0.000000	0.000000	0.000000	0.000000	0.000000	0.000000	0.000000	0.000000
5.390000	-0.027373	-0.496560	0.316450	0.132033	0.078911	0.259341	-0.218196	0.101228	-0.071213	0.078572	0.064958	0.027437	0.146525	0.146525	2.481528	1.312558	0.000000	0.000000	0.000000	0.000000	0.000000	0.000000	0.000000	0.000000	0.000000	0.000000	0.000000	0.000000	0.000000	0.000000	0.000000	0.000000	0.000000	0.000000	0.000000	0.000000	0.000000	0.000000
